<mxfile host="app.diagrams.net" modified="2021-09-08T02:57:11.501Z" agent="5.0 (Windows NT 10.0; Win64; x64) AppleWebKit/537.36 (KHTML, like Gecko) Chrome/91.0.4472.77 Safari/537.36" etag="cglCRMZ97Q3f5xMuooOn" version="15.0.6" type="github">
  <diagram id="JoCSE96qot43j6E-1zWP" name="Page-1">
    <mxGraphModel dx="1609" dy="706" grid="1" gridSize="10" guides="1" tooltips="1" connect="1" arrows="1" fold="1" page="1" pageScale="1" pageWidth="827" pageHeight="1169" math="0" shadow="0">
      <root>
        <mxCell id="0" />
        <mxCell id="1" parent="0" />
        <mxCell id="6xLL_J0pHFJ2ji9zmRiA-1" value="&lt;b&gt;&lt;font style=&quot;font-size: 24px&quot;&gt;JUC包&lt;/font&gt;&lt;/b&gt;" style="rounded=1;whiteSpace=wrap;html=1;fillColor=#d5e8d4;strokeColor=#82b366;" vertex="1" parent="1">
          <mxGeometry x="-40" y="430" width="280" height="60" as="geometry" />
        </mxCell>
        <mxCell id="6xLL_J0pHFJ2ji9zmRiA-2" value="Lock接口" style="rounded=1;whiteSpace=wrap;html=1;" vertex="1" parent="1">
          <mxGeometry x="205" y="550" width="120" height="60" as="geometry" />
        </mxCell>
        <mxCell id="6xLL_J0pHFJ2ji9zmRiA-3" value="" style="endArrow=classic;html=1;entryX=0.5;entryY=0;entryDx=0;entryDy=0;" edge="1" parent="1" target="6xLL_J0pHFJ2ji9zmRiA-2">
          <mxGeometry width="50" height="50" relative="1" as="geometry">
            <mxPoint x="190" y="490" as="sourcePoint" />
            <mxPoint x="310" y="430" as="targetPoint" />
          </mxGeometry>
        </mxCell>
        <mxCell id="6xLL_J0pHFJ2ji9zmRiA-4" value="CopyorWriteArraryList集合类" style="rounded=1;whiteSpace=wrap;html=1;" vertex="1" parent="1">
          <mxGeometry x="340" y="710" width="120" height="60" as="geometry" />
        </mxCell>
        <mxCell id="6xLL_J0pHFJ2ji9zmRiA-5" value="" style="endArrow=classic;html=1;entryX=0.5;entryY=0;entryDx=0;entryDy=0;exitX=0.558;exitY=1.033;exitDx=0;exitDy=0;exitPerimeter=0;" edge="1" parent="1" source="6xLL_J0pHFJ2ji9zmRiA-8" target="6xLL_J0pHFJ2ji9zmRiA-4">
          <mxGeometry width="50" height="50" relative="1" as="geometry">
            <mxPoint x="280" y="390" as="sourcePoint" />
            <mxPoint x="310" y="420" as="targetPoint" />
          </mxGeometry>
        </mxCell>
        <mxCell id="6xLL_J0pHFJ2ji9zmRiA-6" value="synchronized关键字" style="rounded=1;whiteSpace=wrap;html=1;fillColor=#d5e8d4;strokeColor=#82b366;" vertex="1" parent="1">
          <mxGeometry x="120" y="130" width="120" height="60" as="geometry" />
        </mxCell>
        <mxCell id="6xLL_J0pHFJ2ji9zmRiA-7" value="" style="endArrow=classic;html=1;exitX=0.5;exitY=1;exitDx=0;exitDy=0;" edge="1" parent="1" source="6xLL_J0pHFJ2ji9zmRiA-2" target="6xLL_J0pHFJ2ji9zmRiA-8">
          <mxGeometry width="50" height="50" relative="1" as="geometry">
            <mxPoint x="260" y="670" as="sourcePoint" />
            <mxPoint x="140" y="670" as="targetPoint" />
          </mxGeometry>
        </mxCell>
        <mxCell id="6xLL_J0pHFJ2ji9zmRiA-8" value="&lt;font style=&quot;font-size: 14px&quot;&gt;ReentrantLock类（可重入锁，比较常用）&lt;/font&gt;" style="rounded=1;whiteSpace=wrap;html=1;fillColor=#e1d5e7;strokeColor=#9673a6;" vertex="1" parent="1">
          <mxGeometry x="280" y="630" width="120" height="60" as="geometry" />
        </mxCell>
        <mxCell id="6xLL_J0pHFJ2ji9zmRiA-9" value="" style="endArrow=none;html=1;" edge="1" parent="1">
          <mxGeometry width="50" height="50" relative="1" as="geometry">
            <mxPoint x="-230" y="210" as="sourcePoint" />
            <mxPoint x="866" y="220" as="targetPoint" />
          </mxGeometry>
        </mxCell>
        <mxCell id="6xLL_J0pHFJ2ji9zmRiA-11" value="&lt;font style=&quot;font-size: 14px&quot;&gt;&lt;b&gt;Atomic&lt;/b&gt;&lt;/font&gt;" style="ellipse;whiteSpace=wrap;html=1;fillColor=#dae8fc;strokeColor=#6c8ebf;" vertex="1" parent="1">
          <mxGeometry x="90" y="340" width="90" height="50" as="geometry" />
        </mxCell>
        <mxCell id="6xLL_J0pHFJ2ji9zmRiA-13" value="&lt;font style=&quot;font-size: 14px&quot;&gt;&lt;b&gt;AQS&lt;/b&gt;&lt;/font&gt;" style="ellipse;whiteSpace=wrap;html=1;fillColor=#dae8fc;strokeColor=#6c8ebf;" vertex="1" parent="1">
          <mxGeometry x="220" y="350" width="90" height="40" as="geometry" />
        </mxCell>
        <mxCell id="6xLL_J0pHFJ2ji9zmRiA-15" value="&lt;font style=&quot;font-size: 14px&quot;&gt;&lt;b&gt;CAS&lt;/b&gt;&lt;/font&gt;" style="rounded=0;whiteSpace=wrap;html=1;fillColor=#f8cecc;strokeColor=#b85450;" vertex="1" parent="1">
          <mxGeometry x="100" y="270" width="70" height="40" as="geometry" />
        </mxCell>
        <mxCell id="6xLL_J0pHFJ2ji9zmRiA-17" value="&lt;font style=&quot;font-size: 14px&quot;&gt;&lt;b&gt;CLH&lt;/b&gt;&lt;/font&gt;" style="rounded=0;whiteSpace=wrap;html=1;fillColor=#f8cecc;strokeColor=#b85450;" vertex="1" parent="1">
          <mxGeometry x="230" y="280" width="70" height="50" as="geometry" />
        </mxCell>
        <mxCell id="6xLL_J0pHFJ2ji9zmRiA-19" value="" style="endArrow=classic;html=1;exitX=0.5;exitY=1;exitDx=0;exitDy=0;entryX=0.5;entryY=0;entryDx=0;entryDy=0;" edge="1" parent="1" source="6xLL_J0pHFJ2ji9zmRiA-15" target="6xLL_J0pHFJ2ji9zmRiA-11">
          <mxGeometry width="50" height="50" relative="1" as="geometry">
            <mxPoint x="340" y="560" as="sourcePoint" />
            <mxPoint x="390" y="510" as="targetPoint" />
          </mxGeometry>
        </mxCell>
        <mxCell id="6xLL_J0pHFJ2ji9zmRiA-20" value="" style="endArrow=classic;html=1;exitX=0.5;exitY=1;exitDx=0;exitDy=0;" edge="1" parent="1" source="6xLL_J0pHFJ2ji9zmRiA-17" target="6xLL_J0pHFJ2ji9zmRiA-13">
          <mxGeometry width="50" height="50" relative="1" as="geometry">
            <mxPoint x="340" y="560" as="sourcePoint" />
            <mxPoint x="390" y="510" as="targetPoint" />
          </mxGeometry>
        </mxCell>
        <mxCell id="6xLL_J0pHFJ2ji9zmRiA-21" value="" style="endArrow=classic;html=1;exitX=0.6;exitY=1.02;exitDx=0;exitDy=0;exitPerimeter=0;entryX=0.275;entryY=-0.017;entryDx=0;entryDy=0;entryPerimeter=0;" edge="1" parent="1" source="6xLL_J0pHFJ2ji9zmRiA-11" target="6xLL_J0pHFJ2ji9zmRiA-1">
          <mxGeometry width="50" height="50" relative="1" as="geometry">
            <mxPoint x="340" y="560" as="sourcePoint" />
            <mxPoint x="190" y="430" as="targetPoint" />
          </mxGeometry>
        </mxCell>
        <mxCell id="6xLL_J0pHFJ2ji9zmRiA-22" value="" style="endArrow=classic;html=1;exitX=0.5;exitY=1;exitDx=0;exitDy=0;entryX=0.882;entryY=0.033;entryDx=0;entryDy=0;entryPerimeter=0;" edge="1" parent="1" source="6xLL_J0pHFJ2ji9zmRiA-13" target="6xLL_J0pHFJ2ji9zmRiA-1">
          <mxGeometry width="50" height="50" relative="1" as="geometry">
            <mxPoint x="340" y="560" as="sourcePoint" />
            <mxPoint x="390" y="510" as="targetPoint" />
          </mxGeometry>
        </mxCell>
        <mxCell id="6xLL_J0pHFJ2ji9zmRiA-24" value="" style="endArrow=classic;html=1;exitX=1;exitY=0.5;exitDx=0;exitDy=0;" edge="1" parent="1" source="6xLL_J0pHFJ2ji9zmRiA-1" target="6xLL_J0pHFJ2ji9zmRiA-25">
          <mxGeometry width="50" height="50" relative="1" as="geometry">
            <mxPoint x="140" y="450" as="sourcePoint" />
            <mxPoint x="280" y="460" as="targetPoint" />
          </mxGeometry>
        </mxCell>
        <mxCell id="6xLL_J0pHFJ2ji9zmRiA-25" value="" style="rounded=0;whiteSpace=wrap;html=1;fillColor=#e1d5e7;strokeColor=#9673a6;" vertex="1" parent="1">
          <mxGeometry x="300" y="430" width="180" height="60" as="geometry" />
        </mxCell>
        <mxCell id="6xLL_J0pHFJ2ji9zmRiA-26" value="&lt;font style=&quot;font-size: 14px&quot;&gt;&lt;b&gt;CDL（CountDownLatch）&lt;/b&gt;&lt;/font&gt;" style="text;html=1;strokeColor=none;fillColor=none;align=center;verticalAlign=middle;whiteSpace=wrap;rounded=0;" vertex="1" parent="1">
          <mxGeometry x="330" y="450" width="120" height="20" as="geometry" />
        </mxCell>
        <mxCell id="6xLL_J0pHFJ2ji9zmRiA-29" value="" style="rounded=0;whiteSpace=wrap;html=1;fillColor=#dae8fc;strokeColor=#6c8ebf;" vertex="1" parent="1">
          <mxGeometry x="-220" y="510" width="120" height="60" as="geometry" />
        </mxCell>
        <mxCell id="6xLL_J0pHFJ2ji9zmRiA-31" value="&lt;b style=&quot;font-size: 14px&quot;&gt;AtomicInteger&lt;br&gt;AtomicLong&lt;br&gt;AtomicAdder&lt;/b&gt;" style="text;html=1;strokeColor=none;fillColor=none;align=center;verticalAlign=middle;whiteSpace=wrap;rounded=0;" vertex="1" parent="1">
          <mxGeometry x="-180" y="530" width="40" height="20" as="geometry" />
        </mxCell>
        <mxCell id="6xLL_J0pHFJ2ji9zmRiA-32" value="" style="endArrow=classic;html=1;entryX=0.992;entryY=0.383;entryDx=0;entryDy=0;entryPerimeter=0;" edge="1" parent="1" target="6xLL_J0pHFJ2ji9zmRiA-29">
          <mxGeometry width="50" height="50" relative="1" as="geometry">
            <mxPoint x="-30" y="470" as="sourcePoint" />
            <mxPoint x="190" y="380" as="targetPoint" />
          </mxGeometry>
        </mxCell>
      </root>
    </mxGraphModel>
  </diagram>
</mxfile>
